<svg width="17" height="17" viewBox="0 0 17 17" fill="none" xmlns="http://www.w3.org/2000/svg">
<path d="M8.75 4.14062V8.51562L12.5 10.7422L11.875 11.7969L7.5 9.14062V4.14062H8.75ZM3.61328 13.0273C4.92839 14.3424 6.4974 15 8.32031 15C10.1432 15 11.7122 14.3424 13.0273 13.0273C14.3424 11.7122 15 10.1432 15 8.32031C15 6.4974 14.3424 4.92839 13.0273 3.61328C11.7122 2.29818 10.1432 1.64062 8.32031 1.64062C6.4974 1.64062 4.92839 2.29818 3.61328 3.61328C2.29818 4.92839 1.64062 6.4974 1.64062 8.32031C1.64062 10.1432 2.29818 11.7122 3.61328 13.0273ZM2.44141 2.44141C4.06901 0.813802 6.02865 0 8.32031 0C10.612 0 12.5716 0.813802 14.1992 2.44141C15.8268 4.06901 16.6406 6.02865 16.6406 8.32031C16.6406 10.612 15.8268 12.5716 14.1992 14.1992C12.5716 15.8268 10.612 16.6406 8.32031 16.6406C6.02865 16.6406 4.06901 15.8268 2.44141 14.1992C0.813802 12.5716 0 10.612 0 8.32031C0 6.02865 0.813802 4.06901 2.44141 2.44141Z" fill="#F2930D"/>
</svg>
