<svg viewBox="0 0 64 24" fill="none" xmlns="http://www.w3.org/2000/svg">
  <path d="M0 12C4 12 4 8 8 8C12 8 12 12 16 12C20 12 20 8 24 8C28 8 28 12 32 12C36 12 36 8 40 8C44 8 44 12 48 12C52 12 52 8 56 8C60 8 60 12 64 12" stroke="#c084fc" stroke-width="2" stroke-linecap="round"/>
  <path d="M0 16C4 16 4 14 8 14C12 14 12 16 16 16C20 16 20 14 24 14C28 14 28 16 32 16C36 16 36 14 40 14C44 14 44 16 48 16C52 16 52 14 56 14C60 14 60 16 64 16" stroke="#c084fc" stroke-width="1.5" stroke-linecap="round" opacity="0.6"/>
</svg>
