<svg width="238" height="374" viewBox="0 0 238 374" fill="none" xmlns="http://www.w3.org/2000/svg">
  <rect x="53.598" y="13.4718" width="145.33" height="289.014" rx="30" transform="rotate(3 53.598 13.4718)" fill="#2C3E50"/>
  <rect x="53.598" y="13.4718" width="145.33" height="289.014" rx="30" transform="rotate(3 53.598 13.4718)" stroke="#1E293B" stroke-width="4"/>
  <g filter="url(#filter0_d_phone)">
    <rect x="51.7054" y="11.3699" width="149.33" height="293.02" rx="32" transform="rotate(3 51.7054 11.3699)" fill="white" fill-opacity="0.01" shape-rendering="crispEdges"/>
  </g>
  <g clip-path="url(#clip0_phone)">
    <rect x="61.1683" y="21.8796" width="129.327" height="273.014" rx="24" transform="rotate(3 61.1683 21.8796)" fill="white"/>
    <rect width="129.33" height="273.014" transform="translate(61.1658 21.8795) rotate(3)" fill="url(#paint0_phone)"/>
    <rect x="100.521" y="47.977" width="47.9957" height="48.0062" rx="23.9978" transform="rotate(3 100.521 47.977)" fill="#E67E22" fill-opacity="0.3"/>
    <rect x="89.5997" y="103.488" width="63.9977" height="8.00103" rx="4" transform="rotate(3 89.5997 103.488)" fill="#E2E8F0"/>
    <rect x="64.13" y="118.176" width="113.33" height="79.9998" rx="8" transform="rotate(3 64.13 118.176)" fill="#6B40A0" fill-opacity="0.1"/>
    <rect x="59.5244" y="206.055" width="113.33" height="79.9998" rx="8" transform="rotate(3 59.5244 206.055)" fill="#6B40A0" fill-opacity="0.1"/>
  </g>
  <defs>
    <filter id="filter0_d_phone" x="0" y="0" width="237.201" height="373.174" filterUnits="userSpaceOnUse" color-interpolation-filters="sRGB">
      <feFlood flood-opacity="0" result="BackgroundImageFix"/>
      <feColorMatrix in="SourceAlpha" type="matrix" values="0 0 0 0 0 0 0 0 0 0 0 0 0 0 0 0 0 0 127 0" result="hardAlpha"/>
      <feMorphology radius="12" operator="erode" in="SourceAlpha" result="effect1_dropShadow"/>
      <feOffset dy="25"/>
      <feGaussianBlur stdDeviation="25"/>
      <feComposite in2="hardAlpha" operator="out"/>
      <feColorMatrix type="matrix" values="0 0 0 0 0 0 0 0 0 0 0 0 0 0 0 0 0 0 0.25 0"/>
      <feBlend mode="normal" in2="BackgroundImageFix" result="effect1_dropShadow"/>
      <feBlend mode="normal" in="SourceGraphic" in2="effect1_dropShadow" result="shape"/>
    </filter>
    <linearGradient id="paint0_phone" x1="64.6649" y1="0" x2="64.6649" y2="273.014" gradientUnits="userSpaceOnUse">
      <stop stop-color="#6B40A0" stop-opacity="0.1"/>
      <stop offset="1" stop-color="white"/>
    </linearGradient>
    <clipPath id="clip0_phone">
      <rect x="61.1683" y="21.8796" width="129.327" height="273.014" rx="24" transform="rotate(3 61.1683 21.8796)" fill="white"/>
    </clipPath>
  </defs>
</svg>
