<svg width="19" height="15" viewBox="0 0 19 15" fill="none" xmlns="http://www.w3.org/2000/svg">
<path d="M0 3.98438H11.0156V6H0V3.98438ZM0 2.01562H11.0156V0H0V2.01562ZM0 9.98438H6.98438V8.01562H0V9.98438ZM15 6.89062L15.7031 6.14062C15.9219 5.95312 16.1641 5.85938 16.4297 5.85938C16.6953 5.85938 16.9219 5.95312 17.1094 6.14062L17.8594 6.89062C18.0469 7.07812 18.1406 7.30469 18.1406 7.57031C18.1406 7.83594 18.0469 8.07812 17.8594 8.29688L17.1094 9L15 6.89062ZM14.2969 7.59375L9 12.8906V15H11.1094L16.4062 9.70312L14.2969 7.59375Z" fill="#F2930D"/>
</svg>
