<svg width="20" height="20" viewBox="0 0 20 20" fill="none" xmlns="http://www.w3.org/2000/svg">
<path fill-rule="evenodd" clip-rule="evenodd" d="M10 1.66669C5.39752 1.66669 1.66669 5.40335 1.66669 10.0142C1.66669 13.7017 4.05419 16.8309 7.36585 17.9342C7.78252 18.0109 7.93419 17.7534 7.93419 17.5317C7.93419 17.3342 7.92752 16.8084 7.92335 16.1125C5.60502 16.6167 5.11585 14.9934 5.11585 14.9934C4.73752 14.0284 4.19085 13.7717 4.19085 13.7717C3.43419 13.255 4.24835 13.265 4.24835 13.265C5.08419 13.3234 5.52419 14.125 5.52419 14.125C6.26752 15.4 7.47502 15.0317 7.94919 14.8184C8.02585 14.2792 8.24085 13.9117 8.47919 13.7034C6.62919 13.4925 4.68335 12.7759 4.68335 9.57752C4.68335 8.66669 5.00835 7.92085 5.54085 7.33752C5.45502 7.12669 5.16919 6.27752 5.62252 5.12919C5.62252 5.12919 6.32252 4.90419 7.91419 5.98419C8.59399 5.79878 9.29538 5.70435 10 5.70335C10.7084 5.70669 11.4209 5.79919 12.0867 5.98419C13.6775 4.90419 14.3759 5.12835 14.3759 5.12835C14.8309 6.27752 14.5442 7.12669 14.4592 7.33752C14.9925 7.92085 15.3159 8.66669 15.3159 9.57752C15.3159 12.7842 13.3667 13.49 11.5109 13.6967C11.81 13.9542 12.0759 14.4634 12.0759 15.2425C12.0759 16.3575 12.0659 17.2584 12.0659 17.5317C12.0659 17.755 12.2159 18.015 12.6392 17.9334C16.0421 16.792 18.3348 13.6034 18.3334 10.0142C18.3334 5.40335 14.6017 1.66669 10 1.66669Z" fill="#64748B"/>
</svg>
