<svg width="12" height="17" viewBox="0 0 12 17" fill="none" xmlns="http://www.w3.org/2000/svg">
<path d="M4.35547 7.28516C4.75911 7.6888 5.2474 7.89062 5.82031 7.89062C6.39323 7.89062 6.88151 7.6888 7.28516 7.28516C7.6888 6.88151 7.89062 6.39323 7.89062 5.82031C7.89062 5.2474 7.6888 4.75911 7.28516 4.35547C6.88151 3.95182 6.39323 3.75 5.82031 3.75C5.2474 3.75 4.75911 3.95182 4.35547 4.35547C3.95182 4.75911 3.75 5.2474 3.75 5.82031C3.75 6.39323 3.95182 6.88151 4.35547 7.28516ZM1.69922 1.69922C2.83203 0.566406 4.20573 0 5.82031 0C7.4349 0 8.80859 0.566406 9.94141 1.69922C11.0742 2.83203 11.6406 4.20573 11.6406 5.82031C11.6406 6.6276 11.4388 7.55208 11.0352 8.59375C10.6315 9.63542 10.1432 10.612 9.57031 11.5234C8.9974 12.4349 8.43099 13.2878 7.87109 14.082C7.3112 14.8763 6.83594 15.5078 6.44531 15.9766L5.82031 16.6406C5.66406 16.4583 5.45573 16.2174 5.19531 15.918C4.9349 15.6185 4.46615 15.0195 3.78906 14.1211C3.11198 13.2227 2.51953 12.3503 2.01172 11.5039C1.50391 10.6576 1.04167 9.70052 0.625 8.63281C0.208333 7.5651 0 6.6276 0 5.82031C0 4.20573 0.566406 2.83203 1.69922 1.69922Z" fill="#F2930D"/>
</svg>
