<svg width="15" height="15" viewBox="0 0 15 15" fill="none" xmlns="http://www.w3.org/2000/svg">
<path d="M3.00781 6.48438C4.25781 8.90625 6.09375 10.7422 8.51562 11.9922L10.3516 10.1562C10.612 9.89583 10.8984 9.83073 11.2109 9.96094C12.1484 10.2734 13.138 10.4297 14.1797 10.4297C14.4141 10.4297 14.6094 10.5078 14.7656 10.6641C14.9219 10.8203 15 11.0156 15 11.25V14.1797C15 14.4141 14.9219 14.6094 14.7656 14.7656C14.6094 14.9219 14.4141 15 14.1797 15C10.2734 15 6.93359 13.6133 4.16016 10.8398C1.38672 8.06641 0 4.72656 0 0.820312C0 0.585938 0.078125 0.390625 0.234375 0.234375C0.390625 0.078125 0.585938 0 0.820312 0H3.75C3.98438 0 4.17969 0.078125 4.33594 0.234375C4.49219 0.390625 4.57031 0.585938 4.57031 0.820312C4.57031 1.86198 4.72656 2.85156 5.03906 3.78906C5.14323 4.1276 5.07812 4.41406 4.84375 4.64844L3.00781 6.48438Z" fill="#F2930D"/>
</svg>
